{
	"asset":{
		"generator":"Khronos glTF Blender I/O v3.6.28",
		"version":"2.0"
	},
	"scene":0,
	"scenes":[
		{
			"name":"Scene",
			"nodes":[
				0
			]
		}
	],
	"nodes":[
		{
			"mesh":0,
			"name":"PizzaExport"
		}
	],
	"materials":[
		{
			"doubleSided":true,
			"name":"Crust.001",
			"pbrMetallicRoughness":{
				"baseColorTexture":{
					"index":0
				},
				"metallicFactor":0,
				"roughnessFactor":0.5
			}
		},
		{
			"doubleSided":true,
			"name":"Topping.001",
			"pbrMetallicRoughness":{
				"baseColorTexture":{
					"index":1
				},
				"metallicFactor":0,
				"roughnessFactor":0.5
			}
		},
		{
			"name":"Outline.001",
			"pbrMetallicRoughness":{}
		}
	],
	"meshes":[
		{
			"name":"Circle.001",
			"primitives":[
				{
					"attributes":{
						"POSITION":0,
						"NORMAL":1,
						"TEXCOORD_0":2
					},
					"indices":3,
					"material":0
				},
				{
					"attributes":{
						"POSITION":4,
						"NORMAL":5,
						"TEXCOORD_0":6
					},
					"indices":7,
					"material":1
				},
				{
					"attributes":{
						"POSITION":8,
						"NORMAL":9,
						"TEXCOORD_0":10
					},
					"indices":11,
					"material":2
				}
			]
		}
	],
	"textures":[
		{
			"sampler":0,
			"source":0
		},
		{
			"sampler":0,
			"source":1
		}
	],
	"images":[
		{
			"mimeType":"image/png",
			"name":"Crust",
			"uri":"Crust.png"
		},
		{
			"mimeType":"image/png",
			"name":"Topping",
			"uri":"Topping.png"
		}
	],
	"accessors":[
		{
			"bufferView":0,
			"componentType":5126,
			"count":208,
			"max":[
				0.7418108582496643,
				0.042360927909612656,
				0.7418108582496643
			],
			"min":[
				-0.7418108582496643,
				-0.01072353683412075,
				-0.7418108582496643
			],
			"type":"VEC3"
		},
		{
			"bufferView":1,
			"componentType":5126,
			"count":208,
			"type":"VEC3"
		},
		{
			"bufferView":2,
			"componentType":5126,
			"count":208,
			"type":"VEC2"
		},
		{
			"bufferView":3,
			"componentType":5123,
			"count":330,
			"type":"SCALAR"
		},
		{
			"bufferView":4,
			"componentType":5126,
			"count":16,
			"max":[
				0.5882304906845093,
				0.014865132980048656,
				0.5882304906845093
			],
			"min":[
				-0.5882304906845093,
				0.014865132980048656,
				-0.5882304906845093
			],
			"type":"VEC3"
		},
		{
			"bufferView":5,
			"componentType":5126,
			"count":16,
			"type":"VEC3"
		},
		{
			"bufferView":6,
			"componentType":5126,
			"count":16,
			"type":"VEC2"
		},
		{
			"bufferView":7,
			"componentType":5123,
			"count":42,
			"type":"SCALAR"
		},
		{
			"bufferView":8,
			"componentType":5126,
			"count":224,
			"max":[
				0.7503577470779419,
				0.052329860627651215,
				0.7503577470779419
			],
			"min":[
				-0.7503577470779419,
				-0.015914898365736008,
				-0.7503577470779419
			],
			"type":"VEC3"
		},
		{
			"bufferView":9,
			"componentType":5126,
			"count":224,
			"type":"VEC3"
		},
		{
			"bufferView":10,
			"componentType":5126,
			"count":224,
			"type":"VEC2"
		},
		{
			"bufferView":11,
			"componentType":5123,
			"count":372,
			"type":"SCALAR"
		}
	],
	"bufferViews":[
		{
			"buffer":0,
			"byteLength":2496,
			"byteOffset":0,
			"target":34962
		},
		{
			"buffer":0,
			"byteLength":2496,
			"byteOffset":2496,
			"target":34962
		},
		{
			"buffer":0,
			"byteLength":1664,
			"byteOffset":4992,
			"target":34962
		},
		{
			"buffer":0,
			"byteLength":660,
			"byteOffset":6656,
			"target":34963
		},
		{
			"buffer":0,
			"byteLength":192,
			"byteOffset":7316,
			"target":34962
		},
		{
			"buffer":0,
			"byteLength":192,
			"byteOffset":7508,
			"target":34962
		},
		{
			"buffer":0,
			"byteLength":128,
			"byteOffset":7700,
			"target":34962
		},
		{
			"buffer":0,
			"byteLength":84,
			"byteOffset":7828,
			"target":34963
		},
		{
			"buffer":0,
			"byteLength":2688,
			"byteOffset":7912,
			"target":34962
		},
		{
			"buffer":0,
			"byteLength":2688,
			"byteOffset":10600,
			"target":34962
		},
		{
			"buffer":0,
			"byteLength":1792,
			"byteOffset":13288,
			"target":34962
		},
		{
			"buffer":0,
			"byteLength":744,
			"byteOffset":15080,
			"target":34963
		}
	],
	"samplers":[
		{
			"magFilter":9729,
			"minFilter":9987
		}
	],
	"buffers":[
		{
			"byteLength":15824,
			"uri":"Pizza.bin"
		}
	]
}
